<svg width="110" height="110" viewBox="0 0 110 110" fill="none" xmlns="http://www.w3.org/2000/svg">
<circle cx="55" cy="55" r="55" fill="#9E00FF"/>
<path d="M84.7203 52.4091H23.2797C22.7817 52.4091 22.3292 52.0863 22.1193 51.581C21.9094 51.0757 21.9804 50.4801 22.3011 50.055L37.0366 30.5089C37.2798 30.1861 37.6376 30 38.0152 30H69.988C70.3656 30 70.7234 30.1861 70.9666 30.5089L85.6989 50.055C86.0196 50.4809 86.0906 51.0764 85.8807 51.581C85.6708 52.0856 85.2183 52.4091 84.7203 52.4091ZM26.0336 49.5461H81.9677L69.3935 32.8631H38.6104L26.0336 49.5461Z" fill="white"/>
<path d="M54 94L22.3005 51.8995L24.2589 50.0557L54 89.5543L83.7412 50.0557L85.6996 51.8995L54 94Z" fill="white"/>
<path d="M54 93.2083C53.4566 93.2083 52.9734 92.8254 52.7929 92.2528L39.9313 51.4535C39.7899 51.0062 39.8565 50.5109 40.1073 50.1287L52.9689 30.5826C53.4502 29.8497 54.5478 29.8497 55.0304 30.5826L67.8945 50.1287C68.1461 50.5102 68.212 51.0062 68.0705 51.4535L55.2064 92.2528C55.0266 92.8254 54.5433 93.2083 54 93.2083ZM42.5707 51.2159L53.9993 87.4722L65.4305 51.2159L54 33.8465L42.5707 51.2159Z" fill="white"/>
<path d="M42.3983 50.7249L39.2754 31.1794L36.7553 31.683L39.8782 51.2285L42.3983 50.7249Z" fill="white"/>
<path d="M71.2496 31.6824L68.7295 31.1785L65.6047 50.7247L68.1248 51.2286L71.2496 31.6824Z" fill="white"/>
</svg>
