<svg width="110" height="110" viewBox="0 0 110 110" fill="none" xmlns="http://www.w3.org/2000/svg">
<circle cx="55" cy="55" r="55" fill="#191E9A"/>
<path d="M55 66.6C52.3102 66.6 49.6807 65.8023 47.4442 64.3079C45.2077 62.8136 43.4646 60.6895 42.4352 58.2045C41.4059 55.7194 41.1365 52.9849 41.6613 50.3467C42.1861 47.7086 43.4813 45.2853 45.3833 43.3833C47.2853 41.4813 49.7086 40.186 52.3467 39.6613C54.9849 39.1365 57.7194 39.4059 60.2045 40.4352C62.6895 41.4646 64.8136 43.2077 66.308 45.4442C67.8023 47.6807 68.6 50.3101 68.6 53C68.6 56.6069 67.1671 60.0661 64.6166 62.6166C62.0661 65.1671 58.6069 66.6 55 66.6ZM55 43.9333C53.2068 43.9333 51.4538 44.4651 49.9628 45.4613C48.4718 46.4576 47.3097 47.8736 46.6235 49.5303C45.9372 51.187 45.7577 53.01 46.1075 54.7688C46.4574 56.5275 47.3209 58.1431 48.5889 59.4111C49.8569 60.6791 51.4724 61.5426 53.2312 61.8924C54.9899 62.2422 56.8129 62.0627 58.4696 61.3765C60.1264 60.6902 61.5424 59.5281 62.5386 58.0371C63.5349 56.5461 64.0666 54.7932 64.0666 53C64.0666 50.5953 63.1114 48.2892 61.4111 46.5889C59.7107 44.8885 57.4046 43.9333 55 43.9333Z" fill="white"/>
<path d="M66.3333 87H43.6667C41.2621 87 38.9559 86.0448 37.2556 84.3444C35.5553 82.6441 34.6 80.338 34.6 77.9333V72.1533C34.6041 71.7032 34.7421 71.2645 34.9964 70.8932C35.2507 70.5218 35.6098 70.2345 36.028 70.068L44.2787 66.7587C44.5584 66.6347 44.8602 66.5686 45.1661 66.5644C45.472 66.5601 45.7756 66.6179 46.0586 66.7341C46.3416 66.8504 46.5981 67.0227 46.8127 67.2407C47.0273 67.4587 47.1956 67.7179 47.3074 68.0027C47.4191 68.2875 47.4721 68.5919 47.4631 68.8977C47.454 69.2035 47.3832 69.5043 47.2548 69.782C47.1264 70.0597 46.9432 70.3085 46.7161 70.5135C46.4889 70.7185 46.2227 70.8753 45.9333 70.9747L39.1334 73.6947V77.9333C39.1334 79.1356 39.611 80.2887 40.4611 81.1389C41.3113 81.989 42.4644 82.4667 43.6667 82.4667H66.3333C67.5356 82.4667 68.6887 81.989 69.5389 81.1389C70.389 80.2887 70.8667 79.1356 70.8667 77.9333V73.6947L64.0667 70.9747C63.5076 70.7522 63.0598 70.3168 62.8217 69.7642C62.5837 69.2116 62.5749 68.5871 62.7973 68.028C63.0198 67.4689 63.4552 67.0211 64.0078 66.7831C64.5604 66.545 65.1849 66.5362 65.744 66.7587L73.9947 70.068C74.4128 70.2345 74.772 70.5218 75.0263 70.8932C75.2806 71.2645 75.4186 71.7032 75.4227 72.1533V77.9333C75.4227 79.1259 75.1874 80.3067 74.7303 81.4082C74.2733 82.5097 73.6034 83.5102 72.7591 84.3525C71.9148 85.1947 70.9126 85.862 69.81 86.3163C68.7073 86.7707 67.5259 87.003 66.3333 87Z" fill="white"/>
<path d="M39.1333 41.6667C36.8918 41.6667 34.7006 41.002 32.8369 39.7566C30.9731 38.5113 29.5205 36.7413 28.6627 34.6704C27.8049 32.5995 27.5805 30.3208 28.0178 28.1223C28.4551 25.9239 29.5345 23.9045 31.1195 22.3195C32.7045 20.7345 34.7239 19.6551 36.9223 19.2178C39.1208 18.7805 41.3995 19.0049 43.4704 19.8627C45.5413 20.7205 47.3113 22.1731 48.5567 24.0369C49.802 25.9006 50.4667 28.0918 50.4667 30.3333C50.4667 31.8216 50.1735 33.2954 49.604 34.6704C49.0344 36.0454 48.1996 37.2948 47.1472 38.3472C46.0948 39.3996 44.8454 40.2344 43.4704 40.804C42.0954 41.3735 40.6217 41.6667 39.1333 41.6667ZM39.1333 23.5333C37.7884 23.5333 36.4737 23.9321 35.3555 24.6793C34.2372 25.4265 33.3656 26.4885 32.851 27.7311C32.3363 28.9736 32.2016 30.3409 32.464 31.6599C32.7264 32.979 33.374 34.1907 34.325 35.1417C35.276 36.0926 36.4877 36.7403 37.8067 37.0027C39.1258 37.265 40.493 37.1304 41.7356 36.6157C42.9781 36.101 44.0401 35.2295 44.7873 34.1112C45.5345 32.993 45.9333 31.6782 45.9333 30.3333C45.9333 28.5299 45.2169 26.8003 43.9417 25.525C42.6664 24.2498 40.9368 23.5333 39.1333 23.5333Z" fill="white"/>
<path d="M36.8667 60.684H30.0667C27.662 60.684 25.3559 59.7288 23.6556 58.0284C21.9552 56.3281 21 54.022 21 51.6173V47.6507C20.9996 47.1967 21.1354 46.7531 21.3901 46.3772C21.6447 46.0014 22.0063 45.7107 22.428 45.5427L29.6587 42.7094C30.2093 42.4908 30.8237 42.4965 31.3702 42.7252C31.9167 42.954 32.3519 43.3877 32.5827 43.9334C32.6931 44.2102 32.7478 44.506 32.7438 44.804C32.7397 45.102 32.6769 45.3962 32.559 45.6699C32.4411 45.9436 32.2704 46.1914 32.0567 46.399C31.8429 46.6066 31.5903 46.7701 31.3133 46.88L25.5333 49.192V51.6173C25.5333 52.8197 26.0109 53.9727 26.8611 54.8229C27.7113 55.6731 28.8643 56.1507 30.0667 56.1507H36.8667C37.4678 56.1507 38.0443 56.3895 38.4694 56.8146C38.8945 57.2397 39.1333 57.8162 39.1333 58.4173C39.1333 59.0185 38.8945 59.595 38.4694 60.0201C38.0443 60.4452 37.4678 60.684 36.8667 60.684Z" fill="white"/>
<path d="M70.8667 41.6667C68.6252 41.6667 66.434 41.002 64.5702 39.7566C62.7065 38.5113 61.2538 36.7413 60.396 34.6704C59.5383 32.5995 59.3138 30.3208 59.7511 28.1223C60.1884 25.9239 61.2678 23.9045 62.8528 22.3195C64.4378 20.7345 66.4572 19.6551 68.6556 19.2178C70.8541 18.7805 73.1329 19.0049 75.2038 19.8627C77.2746 20.7205 79.0447 22.1731 80.29 24.0369C81.5353 25.9006 82.2 28.0918 82.2 30.3333C82.2 33.3391 81.006 36.2218 78.8805 38.3472C76.7551 40.4726 73.8725 41.6667 70.8667 41.6667ZM70.8667 23.5333C69.5218 23.5333 68.2071 23.9321 67.0888 24.6793C65.9705 25.4265 65.099 26.4885 64.5843 27.7311C64.0696 28.9736 63.935 30.3409 64.1973 31.6599C64.4597 32.979 65.1074 34.1907 66.0583 35.1417C67.0093 36.0926 68.221 36.7403 69.5401 37.0027C70.8591 37.265 72.2264 37.1304 73.4689 36.6157C74.7115 36.101 75.7735 35.2295 76.5207 34.1112C77.2679 32.993 77.6667 31.6782 77.6667 30.3333C77.6667 28.5299 76.9502 26.8003 75.675 25.525C74.3998 24.2498 72.6701 23.5333 70.8667 23.5333Z" fill="white"/>
<path d="M79.9333 60.684H73.1333C72.5321 60.684 71.9556 60.4452 71.5305 60.0201C71.1054 59.595 70.8666 59.0185 70.8666 58.4173C70.8666 57.8162 71.1054 57.2396 71.5305 56.8146C71.9556 56.3895 72.5321 56.1507 73.1333 56.1507H79.9333C81.1356 56.1507 82.2887 55.673 83.1388 54.8229C83.989 53.9727 84.4666 52.8196 84.4666 51.6173V49.192L78.6866 46.9253C78.4096 46.8154 78.157 46.652 77.9433 46.4443C77.7295 46.2367 77.5588 45.9889 77.4409 45.7152C77.323 45.4415 77.2602 45.1473 77.2562 44.8493C77.2521 44.5513 77.3069 44.2555 77.4173 43.9787C77.6351 43.4207 78.0649 42.9715 78.6128 42.7294C79.1607 42.4874 79.7821 42.472 80.3413 42.6867L87.572 45.52C87.9937 45.688 88.3553 45.9787 88.6099 46.3546C88.8645 46.7304 89.0004 47.174 89 47.628V51.5947C89.0029 52.7872 88.7706 53.9687 88.3163 55.0713C87.862 56.1739 87.1946 57.1761 86.3524 58.0204C85.5102 58.8647 84.5097 59.5346 83.4082 59.9917C82.3067 60.4487 81.1259 60.684 79.9333 60.684Z" fill="white"/>
</svg>
