<svg width="110" height="110" viewBox="0 0 110 110" fill="none" xmlns="http://www.w3.org/2000/svg">
<circle cx="55" cy="55" r="55" fill="#F01C1C"/>
<path d="M71.0709 24.4885C65.3973 19.8872 57.9283 18.0563 50.5831 19.4636C40.6944 21.3579 32.7523 29.5725 31.2696 39.4405C30.0601 47.493 32.9671 55.5349 39.0461 60.9538C41.7851 63.395 43.4376 66.9114 43.7 70.8562C43.705 70.9278 43.7192 70.9969 43.7351 71.0651V83.4352C43.7351 84.1162 44.296 84.669 44.9889 84.669H46.2384C46.7474 88.2544 49.4254 91 52.6509 91H58.3429C61.5683 91 64.2455 88.2544 64.7545 84.669H66.0041C66.6961 84.669 67.2578 84.1162 67.2578 83.4352V70.8677C67.2578 70.8653 67.2586 70.8628 67.2586 70.8595C67.2586 67.1894 68.952 63.6451 72.0279 60.8797C77.0947 56.3246 80 49.8455 80 43.1048C80.0008 35.8764 76.7461 29.0905 71.0709 24.4885ZM51.0637 47.9043H49.1371C48.0747 47.9043 47.2105 47.0538 47.2105 46.0084C47.2105 44.9629 48.0747 44.1124 49.1371 44.1124C50.1994 44.1124 51.0637 44.9629 51.0637 46.0084V47.9043ZM59.9309 46.0084C59.9309 44.9629 60.7952 44.1124 61.8584 44.1124C62.9207 44.1124 63.7849 44.9629 63.7849 46.0084C63.7849 47.0538 62.9207 47.9043 61.8584 47.9043H59.9335L59.9309 46.0084ZM59.1762 72.0053H64.7512V82.2014H63.6036C63.6011 82.2014 63.5986 82.2006 63.5952 82.2006C63.5919 82.2006 63.5902 82.2014 63.5869 82.2014H47.4069C47.4044 82.2014 47.4019 82.2006 47.3985 82.2006C47.3952 82.2006 47.3935 82.2014 47.3902 82.2014H46.2434V72.0053H58.2509H59.1762ZM53.5711 69.5377V50.3719H57.4301L57.4586 69.5377H53.5711ZM58.3429 88.5324H52.6509C50.7803 88.5324 49.2098 86.8841 48.7752 84.669H62.2178C61.784 86.8841 60.2135 88.5324 58.3429 88.5324ZM70.337 59.0586C67.1007 61.9679 65.185 65.6496 64.8264 69.5377H59.9652L59.9376 50.3719H61.8584C64.3032 50.3719 66.2924 48.4143 66.2924 46.0084C66.2924 43.6025 64.3032 41.6448 61.8584 41.6448C59.4127 41.6448 57.4235 43.6025 57.4235 46.01L57.426 47.9043H53.5711V46.0084C53.5711 43.6025 51.5819 41.6448 49.1371 41.6448C46.6923 41.6448 44.703 43.6025 44.703 46.0084C44.703 48.4143 46.6923 50.3719 49.1371 50.3719H51.0637V69.5377H46.0721C45.5405 65.4209 43.6783 61.7524 40.7286 59.1244C35.2724 54.26 32.6629 47.0365 33.7495 39.8007C35.0793 30.9503 42.198 23.5837 51.0611 21.8852C57.6709 20.6201 64.3826 22.2619 69.4744 26.3926C74.5696 30.5242 77.4917 36.6159 77.4917 43.1057C77.4934 49.1545 74.8847 54.9698 70.337 59.0586Z" fill="white"/>
</svg>
