<?xml version="1.0" encoding="utf-8"?>
<!-- Generator: Adobe Illustrator 25.0.0, SVG Export Plug-In . SVG Version: 6.00 Build 0)  -->
<svg version="1.1" id="Layer_1" xmlns="http://www.w3.org/2000/svg" xmlns:xlink="http://www.w3.org/1999/xlink" x="0px" y="0px"
	 viewBox="0 0 300 300" style="enable-background:new 0 0 300 300;" xml:space="preserve">
<style type="text/css">
	.st0{fill:url(#SVGID_1_);}
	.st1{fill:url(#SVGID_2_);}
	.st2{fill:url(#SVGID_3_);}
	.st3{fill:url(#SVGID_4_);}
	.st4{fill:url(#SVGID_5_);}
	.st5{fill:url(#SVGID_6_);}
	.st6{fill:url(#SVGID_7_);}
</style>
<g>
	<g>
		<linearGradient id="SVGID_1_" gradientUnits="userSpaceOnUse" x1="250.0372" y1="238.0864" x2="103.587" y2="61.1257">
			<stop  offset="0" style="stop-color:#EA5923"/>
			<stop  offset="9.144443e-02" style="stop-color:#E7582A"/>
			<stop  offset="0.2342" style="stop-color:#DD5339"/>
			<stop  offset="0.4104" style="stop-color:#CD4D4E"/>
			<stop  offset="0.6133" style="stop-color:#B64364"/>
			<stop  offset="0.8356" style="stop-color:#97387A"/>
			<stop  offset="1" style="stop-color:#7B2F88"/>
		</linearGradient>
		<path class="st0" d="M270.6,63.6c-14.9-14.2-35.9-21.3-63-21.3h-61.3L117.4,179h57.8L194,89.3h10.5c9.5,0,16.9,3.2,22.3,9.5
			c5.3,6.3,8,15.6,8,27.9c0,16.3-2.4,30.8-7.1,43.5c-4.7,12.7-11.3,22.5-19.8,29.4c-8.5,6.9-18.2,10.3-29,10.3h-19.2
			c-28.4,0-53,19.9-58.9,47.7l0,0h69.4c25.3,0,47.3-5.3,65.8-16.1c18.5-10.7,32.6-26.2,42.4-46.3c9.7-20.2,14.6-44,14.6-71.5
			C292.9,97.8,285.5,77.8,270.6,63.6z"/>
	</g>
	<g>
		<linearGradient id="SVGID_2_" gradientUnits="userSpaceOnUse" x1="252.6583" y1="150.0421" x2="184.1814" y2="230.0448">
			<stop  offset="0" style="stop-color:#A21349"/>
			<stop  offset="8.553495e-02" style="stop-color:#A51E4D"/>
			<stop  offset="0.2191" style="stop-color:#AB3358"/>
			<stop  offset="0.384" style="stop-color:#B7556E"/>
			<stop  offset="0.5738" style="stop-color:#C98291"/>
			<stop  offset="0.7848" style="stop-color:#E1BCC3"/>
			<stop  offset="1" style="stop-color:#FFFFFF"/>
		</linearGradient>
		<path class="st1" d="M181.6,209.9c-1.8,0.1-2.8,0.1-2.8,0.1h-19.2c-28.4,0-53,19.9-58.9,47.7h69.4c25.3,0,47.3-5.3,65.8-16.1
			c18.5-10.7,32.6-26.2,42.4-46.3c4.6-9.6,8.2-20.1,10.6-31.3C251.8,204.2,194.8,209.3,181.6,209.9z"/>
	</g>
	<linearGradient id="SVGID_3_" gradientUnits="userSpaceOnUse" x1="245.9518" y1="241.4671" x2="99.5063" y2="64.5122">
		<stop  offset="0" style="stop-color:#EA5923"/>
		<stop  offset="9.144443e-02" style="stop-color:#E7582A"/>
		<stop  offset="0.2342" style="stop-color:#DD5339"/>
		<stop  offset="0.4104" style="stop-color:#CD4D4E"/>
		<stop  offset="0.6133" style="stop-color:#B64364"/>
		<stop  offset="0.8356" style="stop-color:#97387A"/>
		<stop  offset="1" style="stop-color:#7B2F88"/>
	</linearGradient>
	<path class="st2" d="M194,89.3H82.7c-9,0-17.8-3-25-8.4L7.1,42.3h139.2L194,89.3z"/>
	<linearGradient id="SVGID_4_" gradientUnits="userSpaceOnUse" x1="136.9498" y1="89.376" x2="136.9498" y2="89.376">
		<stop  offset="0" style="stop-color:#EA5923"/>
		<stop  offset="9.144443e-02" style="stop-color:#E7582A"/>
		<stop  offset="0.2342" style="stop-color:#DD5339"/>
		<stop  offset="0.4104" style="stop-color:#CD4D4E"/>
		<stop  offset="0.6133" style="stop-color:#B64364"/>
		<stop  offset="0.8356" style="stop-color:#97387A"/>
		<stop  offset="1" style="stop-color:#7B2F88"/>
	</linearGradient>
	<path class="st3" d="M136.9,89.4"/>
	<linearGradient id="SVGID_5_" gradientUnits="userSpaceOnUse" x1="167.6528" y1="70.1318" x2="155.9575" y2="135.2187">
		<stop  offset="0" style="stop-color:#2A3188"/>
		<stop  offset="8.553495e-02" style="stop-color:#31358B"/>
		<stop  offset="0.2191" style="stop-color:#414293"/>
		<stop  offset="0.384" style="stop-color:#5D5BA4"/>
		<stop  offset="0.5738" style="stop-color:#8883BD"/>
		<stop  offset="0.7848" style="stop-color:#BFBBDE"/>
		<stop  offset="1" style="stop-color:#FFFFFF"/>
	</linearGradient>
	<polygon class="st4" points="181.2,150.4 194,89.3 136.9,89.4 135.8,91.8 123.4,150.4 	"/>
	<linearGradient id="SVGID_6_" gradientUnits="userSpaceOnUse" x1="252.6583" y1="150.0421" x2="184.1814" y2="230.0448">
		<stop  offset="0" style="stop-color:#A21349"/>
		<stop  offset="8.553495e-02" style="stop-color:#A51E4D"/>
		<stop  offset="0.2191" style="stop-color:#AB3358"/>
		<stop  offset="0.384" style="stop-color:#B7556E"/>
		<stop  offset="0.5738" style="stop-color:#C98291"/>
		<stop  offset="0.7848" style="stop-color:#E1BCC3"/>
		<stop  offset="1" style="stop-color:#FFFFFF"/>
	</linearGradient>
	<path class="st5" d="M288.9,164c-2.4,11.3-5.9,21.7-10.6,31.3c-9.7,20.2-23.8,35.6-42.4,46.3c-18.5,10.7-40.4,16.1-65.8,16.1h-69.4
		c5.9-27.8,30.4-47.7,58.9-47.7h19.2c0,0,1,0,2.8-0.1C194.8,209.3,251.8,204.2,288.9,164z"/>
	<linearGradient id="SVGID_7_" gradientUnits="userSpaceOnUse" x1="234.4731" y1="48.8593" x2="254.1348" y2="145.1338">
		<stop  offset="0" style="stop-color:#FFFFFF;stop-opacity:0"/>
		<stop  offset="1" style="stop-color:#FFFFFF"/>
	</linearGradient>
	<path class="st6" d="M270.6,63.6c-14.9-14.2-35.9-21.3-63-21.3h-10.4V89c14-0.9,71.3,0.2,91.7,75c0,0,0,0,0,0
		c2.7-12.4,4-25.8,4-40.2C292.9,97.8,285.5,77.8,270.6,63.6z"/>
</g>
</svg>
